<svg width="24" height="24" viewBox="0 0 24 24" fill="none" xmlns="http://www.w3.org/2000/svg">
<path fill-rule="evenodd" clip-rule="evenodd" d="M4 6C3.44772 6 3 5.55228 3 5C3 4.44772 3.44772 4 4 4H20C20.5523 4 21 4.44772 21 5C21 5.55228 20.5523 6 20 6H19V17.5C19 18.6046 18.1046 19.5 17 19.5H7C5.89543 19.5 5 18.6046 5 17.5V6H4ZM11.9893 7C12.5415 7 12.9893 7.44772 12.9893 8V8.33333H13.8643C14.4165 8.33333 14.8643 8.78105 14.8643 9.33333C14.8643 9.88562 14.4165 10.3333 13.8643 10.3333H11.0726C10.8885 10.3333 10.7393 10.4826 10.7393 10.6667C10.7393 10.8508 10.8885 11 11.0726 11H12.9059C14.1946 11 15.2393 12.0447 15.2393 13.3333C15.2393 14.5941 14.2393 15.6213 12.9893 15.6652V16C12.9893 16.5523 12.5415 17 11.9893 17C11.437 17 10.9893 16.5523 10.9893 16V15.6667H10.1143C9.56197 15.6667 9.11426 15.219 9.11426 14.6667C9.11426 14.1144 9.56197 13.6667 10.1143 13.6667H12.9059C13.09 13.6667 13.2393 13.5174 13.2393 13.3333C13.2393 13.1492 13.09 13 12.9059 13H11.0726C9.78393 13 8.73926 11.9553 8.73926 10.6667C8.73926 9.4059 9.73919 8.37867 10.9893 8.33479V8C10.9893 7.44772 11.437 7 11.9893 7Z" fill="black"/>
</svg>
